<svg xmlns="http://www.w3.org/2000/svg" viewBox="0 0 640 800" role="img" aria-labelledby="title">
  <title id="title">Abstract device SDK topology</title>
  <rect width="640" height="800" fill="#070908"/><g stroke="#41514e" stroke-width="3"><path d="M320 120 130 290l72 286 262 86 80-244z"/><path d="m130 290 282 72-210 214M320 120l92 242 132 56M202 576l262 86-52-300"/></g>
  <g fill="#0f1716" stroke="#9adbcf" stroke-width="5"><circle cx="320" cy="120" r="46"/><circle cx="130" cy="290" r="46"/><circle cx="412" cy="362" r="58"/><circle cx="544" cy="418" r="40"/><circle cx="202" cy="576" r="48"/><circle cx="464" cy="662" r="46"/></g>
  <g fill="#9adbcf"><circle cx="320" cy="120" r="12"/><circle cx="130" cy="290" r="12"/><circle cx="412" cy="362" r="16"/><circle cx="544" cy="418" r="10"/><circle cx="202" cy="576" r="12"/><circle cx="464" cy="662" r="12"/></g>
  <path d="M280 700h80" stroke="#dce7e4" stroke-width="10" stroke-linecap="round"/>
</svg>
