<svg xmlns="http://www.w3.org/2000/svg" viewBox="0 0 640 800" role="img" aria-labelledby="title">
  <title id="title">Abstract API contract schema</title>
  <rect width="640" height="800" fill="#0a0c0c"/><g fill="none" stroke="#4b5d59" stroke-width="4"><rect x="82" y="94" width="476" height="612" rx="22"/><path d="M82 188h476M222 188v518"/></g>
  <g fill="#9adbcf"><rect x="118" y="132" width="68" height="18" rx="9"/><rect x="260" y="232" width="176" height="16" rx="8"/><rect x="260" y="286" width="236" height="16" rx="8"/><rect x="260" y="394" width="198" height="16" rx="8"/><rect x="260" y="502" width="252" height="16" rx="8"/></g>
  <g fill="#18211f"><rect x="114" y="228" width="76" height="76" rx="16"/><rect x="114" y="350" width="76" height="76" rx="16"/><rect x="114" y="472" width="76" height="76" rx="16"/><rect x="114" y="594" width="76" height="76" rx="16"/></g>
  <g stroke="#dce7e4" stroke-width="8" stroke-linecap="round"><path d="m135 266 12 12 24-28M135 388l12 12 24-28M135 510l12 12 24-28M135 632l12 12 24-28"/></g>
</svg>
