<svg xmlns="http://www.w3.org/2000/svg" viewBox="0 0 640 800" role="img" aria-labelledby="title">
  <title id="title">Abstract legacy-to-modern migration</title>
  <rect width="640" height="800" fill="#070808"/><path d="M0 0h300v800H0z" fill="#121616"/><path d="M340 0h300v800H340z" fill="#0d1a18"/>
  <g stroke="#52605e" fill="none" stroke-width="4"><rect x="58" y="106" width="184" height="158" rx="18"/><rect x="58" y="320" width="184" height="158" rx="18"/><rect x="58" y="534" width="184" height="158" rx="18"/></g>
  <g stroke="#9adbcf" fill="none" stroke-width="5"><rect x="398" y="106" width="184" height="158" rx="46"/><rect x="398" y="320" width="184" height="158" rx="46"/><rect x="398" y="534" width="184" height="158" rx="46"/></g>
  <path d="M270 400h100m-34-34 34 34-34 34" fill="none" stroke="#dce7e4" stroke-width="10" stroke-linecap="round" stroke-linejoin="round"/>
  <g fill="#9adbcf"><circle cx="490" cy="185" r="18"/><circle cx="490" cy="399" r="18"/><circle cx="490" cy="613" r="18"/></g>
</svg>
